<svg id="Icons" height="512" fill="white" viewBox="0 0 74 74" width="512" xmlns="http://www.w3.org/2000/svg"><path d="m37 72a35 35 0 1 1 35-35 35.04 35.04 0 0 1 -35 35zm0-68a33 33 0 1 0 33 33 33.038 33.038 0 0 0 -33-33z"/><path d="m51.049 18.56a1 1 0 0 1 -.593-.2 21.873 21.873 0 0 0 -2.4-1.53 1 1 0 1 1 .966-1.751 24.1 24.1 0 0 1 2.621 1.671 1 1 0 0 1 -.595 1.8z"/><path d="m37 62a25 25 0 0 1 0-50 24.548 24.548 0 0 1 4.4.4 1 1 0 0 1 -.359 1.968 22.592 22.592 0 0 0 -4.041-.368 22.982 22.982 0 1 0 22.521 18.314 1 1 0 0 1 1.958-.409 25.016 25.016 0 0 1 -24.479 30.095z"/><path d="m57.751 25.96a1 1 0 0 1 -.866-.5 23.253 23.253 0 0 0 -1.611-2.415 1 1 0 0 1 1.592-1.212 25.133 25.133 0 0 1 1.749 2.624 1 1 0 0 1 -.364 1.367.987.987 0 0 1 -.5.136z"/><path d="m37 9.583a1 1 0 0 1 -1-1v-1.166a1 1 0 0 1 2 0v1.166a1 1 0 0 1 -1 1z"/><path d="m16.906 17.906a1 1 0 0 1 -.707-.292l-.825-.825a1 1 0 0 1 1.414-1.415l.825.825a1 1 0 0 1 -.707 1.707z"/><path d="m8.583 38h-1.166a1 1 0 0 1 0-2h1.166a1 1 0 0 1 0 2z"/><path d="m16.081 58.918a1 1 0 0 1 -.707-1.707l.825-.825a1 1 0 0 1 1.414 1.414l-.825.825a1 1 0 0 1 -.707.293z"/><path d="m37 67.583a1 1 0 0 1 -1-1v-1.166a1 1 0 0 1 2 0v1.166a1 1 0 0 1 -1 1z"/><path d="m57.919 58.918a1 1 0 0 1 -.707-.292l-.825-.825a1 1 0 0 1 1.413-1.415l.825.825a1 1 0 0 1 -.707 1.707z"/><path d="m66.583 38h-1.166a1 1 0 0 1 0-2h1.166a1 1 0 0 1 0 2z"/><path d="m57.094 17.906a1 1 0 0 1 -.707-1.707l.825-.825a1 1 0 0 1 1.414 1.415l-.825.825a1 1 0 0 1 -.707.292z"/><path d="m38.468 36.807h-8.048a1 1 0 0 1 -1-1v-10.225a1 1 0 0 1 1-1h8.048a6.113 6.113 0 0 1 0 12.225zm-7.048-2h7.048a4.113 4.113 0 0 0 0-8.225h-7.048z"/><path d="m38.468 47.032h-8.048a1 1 0 0 1 -1-1v-10.225a1 1 0 0 1 1-1h8.048a6.113 6.113 0 0 1 0 12.225zm-7.048-2h7.048a4.113 4.113 0 0 0 0-8.225h-7.048z"/><path d="m39.008 26.6a1 1 0 0 1 -1-1v-3.23a1 1 0 1 1 2 0v3.23a1 1 0 0 1 -1 1z"/><path d="m38.873 36.814a.974.974 0 0 1 -1-.969v-.061a1 1 0 0 1 2 0 1.026 1.026 0 0 1 -1 1.03z"/><path d="m39.008 50.63a1 1 0 0 1 -1-1v-3.636a1 1 0 0 1 2 0v3.636a1 1 0 0 1 -1 1z"/><path d="m33.281 50.63a1 1 0 0 1 -1-1v-3.606a1 1 0 0 1 2 0v3.606a1 1 0 0 1 -1 1z"/><path d="m33.281 26.574a1 1 0 0 1 -1-1v-3.2a1 1 0 1 1 2 0v3.2a1 1 0 0 1 -1 1z"/></svg>